<?xml version="1.0" encoding="utf-8"?>
<!-- Generator: Adobe Illustrator 23.0.3, SVG Export Plug-In . SVG Version: 6.00 Build 0)  -->
<svg version="1.1" id="_1-facebook" xmlns="http://www.w3.org/2000/svg" xmlns:xlink="http://www.w3.org/1999/xlink" x="0px"
	 y="0px" viewBox="0 0 40 40" style="enable-background:new 0 0 40 40;" xml:space="preserve">
<style type="text/css">
	.st0{fill:#303030;}
	.st1{fill:#FFFFFF;}
</style>
<g>
	<path class="st0" d="M7,0h26c3.8,0,7,3.1,7,7V33c0,3.8-3.1,7-7,7H7c-3.9-0.1-7-3.2-7-7V7.1C0,3.2,3.1,0,7,0z"/>
	<path class="st1" d="M34,18.5h-6.2v-4.7c0-1.2,1.4-1.3,1.8-1.3h4.2V6h-4.2c-4.7,0-8.2,3.4-8.2,7.7v4.7H16V25h5.3v15h6.5V25H33
		L34,18.5z"/>
</g>
</svg>
