<?xml version="1.0" encoding="utf-8"?>
<!-- Generator: Adobe Illustrator 23.0.3, SVG Export Plug-In . SVG Version: 6.00 Build 0)  -->
<svg version="1.1" id="Layer_1" xmlns="http://www.w3.org/2000/svg" xmlns:xlink="http://www.w3.org/1999/xlink" x="0px" y="0px"
	 viewBox="0 0 40 40" style="enable-background:new 0 0 40 40;" xml:space="preserve">
<style type="text/css">
	.st0{fill:#303030;}
	.st1{fill:#FFFFFF;}
</style>
<g>
	<path class="st0" d="M33,40H7c-3.9,0-7-3.1-7-7V7c0-3.9,3.1-7,7-7h26c3.9,0,7,3.1,7,7v26C40,36.9,36.9,40,33,40z"/>
	<path class="st1" d="M29.5,13c1.2-0.6,2.1-1.7,2.5-3c-1,1-3.1,1.3-3.1,1.3c-1.7-2.1-4.9-2.5-7-0.7c-1.6,1.3-2.2,3.4-1.6,5.4H20
		c-4.1-0.3-7.9-2.3-10.5-5.5c0,0-3,4,1.5,7c0,0-2,0-2.5-0.5c0,0-0.5,3,4,5c-0.6,0.3-1.4,0.3-2,0c0,1.9,2,3.5,4.5,3.5
		c0,1.4-3.4,2.5-7.5,2.5c6.5,4.5,22,3.5,23-13.5L33,12L29.5,13z"/>
</g>
</svg>
